<?xml version="1.0" encoding="UTF-8" standalone="no"?>
<svg width="451px" height="99px" viewBox="0 0 451 99" version="1.1" xmlns="http://www.w3.org/2000/svg" xmlns:xlink="http://www.w3.org/1999/xlink">
    <!-- Generator: Sketch 49 (51002) - http://www.bohemiancoding.com/sketch -->
    <title>Logo@2x</title>
    <desc>Created with Sketch.</desc>
    <defs></defs>
    <g id="Symbols" stroke="none" stroke-width="1" fill="none" fill-rule="evenodd">
        <g id="stimorol-logo-onred">
            <g id="Logo">
                <polygon id="Fill-1" fill="#283372" points="0 0.0002 0 98.1922 397.118 98.1922 428.44 0.0072"></polygon>
                <polygon id="Fill-2" fill="#FFFFFF" points="439.4205 0.0065 407.5185 98.1915 419.5245 98.1915 450.8465 0.0065"></polygon>
                <polygon id="Fill-3" fill="#FFFFFF" points="389.3125 7.7899 393.4985 20.6739 407.0455 20.6739 396.0855 28.6379 400.2725 41.5219 389.3125 33.5599 378.3525 41.5219 382.5385 28.6379 371.5785 20.6739 385.1255 20.6739"></polygon>
                <path d="M37.8721,31.4647 C39.4321,30.5117 41.4791,30.0847 44.5121,30.0847 C48.4831,30.0847 52.9831,31.0497 56.6501,32.6767 L59.0151,20.5137 C55.0331,18.9907 50.2231,18.1197 45.7471,18.1197 C30.7851,18.1197 21.4891,25.6217 21.4891,37.6987 C21.4891,43.6207 23.8001,48.6197 28.9461,51.7487 C31.2921,53.1757 33.8691,54.0807 36.3641,55.1907 C39.6741,56.6617 42.4131,58.1347 42.4131,61.2707 C42.4131,65.5587 38.5901,67.8247 31.3561,67.8247 C27.4731,67.8247 22.6621,66.6337 18.6811,64.7017 L16.2401,77.2697 C21.1671,78.8717 26.2621,79.7017 31.0911,79.7017 C46.5451,79.7017 56.1441,71.5907 56.1441,58.5337 C56.1441,54.6527 55.1321,50.8877 52.3151,48.0937 C49.5181,45.3197 45.7911,43.6757 42.2091,42.1747 C39.4141,41.0027 35.3091,39.8007 35.3091,36.1087 C35.3091,34.2027 36.3171,32.3787 37.8721,31.4647 Z M359.3881,20.6747 L350.5331,66.0457 L372.4951,66.0457 L370.1981,78.0497 L334.7861,78.0497 L345.9361,20.6747 L359.3881,20.6747 Z M299.0471,57.4827 C299.0471,64.2077 301.8561,67.2717 306.4531,67.2717 C316.8391,67.2717 321.2651,52.2907 321.2651,40.9687 C321.2651,34.5837 318.4561,31.5197 313.8581,31.5197 C303.3891,31.5197 299.0471,46.5867 299.0471,57.4827 Z M315.5621,19.3467 C329.0971,19.3467 335.3961,27.0937 335.3961,40.0317 C335.3961,61.5697 325.1811,79.4457 304.7521,79.4457 C291.2161,79.4457 284.9171,71.6987 284.9171,58.7597 C284.9171,48.3747 287.6411,38.0747 293.0041,30.6687 C297.8551,24.0297 305.7711,19.3467 315.5621,19.3467 Z M255.1641,47.4887 L257.4631,47.4887 C264.3571,47.4887 268.1031,44.6797 268.1031,37.7847 C268.1031,35.5717 267.5081,34.3807 266.5711,33.6137 C265.3811,32.6767 263.7621,32.5077 261.0391,32.5077 L258.0591,32.5077 L255.1641,47.4887 Z M261.5491,20.6747 C266.4861,20.6747 270.6561,20.8447 274.1461,22.1227 C279.0001,24.0807 282.0641,28.3357 282.0641,35.3157 C282.0641,44.9357 278.4031,52.5967 270.1461,56.2577 L276.1041,78.0497 L262.4001,78.0497 L257.9751,59.1517 C257.0381,59.2367 255.8461,59.2367 254.6531,59.2367 L252.8651,59.2367 L249.2061,78.0497 L235.7571,78.0497 L246.9061,20.6747 L261.5491,20.6747 Z M199.4111,57.4487 C199.4111,64.1737 202.2201,67.2387 206.8161,67.2387 C217.2011,67.2387 221.6291,52.2557 221.6291,40.9347 C221.6291,34.5507 218.8181,31.4857 214.2231,31.4857 C203.7531,31.4857 199.4111,46.5527 199.4111,57.4487 Z M215.9251,19.3127 C229.4601,19.3127 235.7591,27.0597 235.7591,39.9987 C235.7591,61.5347 225.5451,79.4107 205.1131,79.4107 C191.5791,79.4107 185.2791,71.6647 185.2791,58.7257 C185.2791,48.3407 188.0041,38.0407 193.3671,30.6347 C198.2191,23.9947 206.1361,19.3127 215.9251,19.3127 Z M143.4731,20.6747 C145.8551,30.1237 149.6011,45.2767 151.6441,54.7247 C157.6021,45.2767 167.1371,30.4637 173.3511,20.6747 L184.0761,20.6747 C181.6931,38.6357 178.6291,61.4497 175.7341,78.0497 L163.2211,78.0497 C165.0941,66.8977 166.5411,57.7037 168.3291,46.3827 C162.7961,55.7467 157.0931,64.8547 152.4111,72.6867 L143.9821,72.6867 C142.2801,64.9397 140.2371,55.7467 138.3631,46.3827 C135.7261,57.7037 133.6831,66.8977 131.3001,78.0497 L118.7011,78.0497 C122.4451,60.9387 127.9781,38.6357 132.7471,20.6747 L143.4731,20.6747 Z M124.2731,20.6747 L113.1221,78.0497 L99.6721,78.0497 L110.8231,20.6747 L124.2731,20.6747 Z M105.2071,20.6747 L102.9081,32.6767 L89.5441,32.6767 L80.7761,78.0497 L67.3261,78.0497 L76.0101,32.6767 L62.4751,32.6767 L64.8571,20.6747 L105.2071,20.6747 Z" id="Fill-4" fill="#FFFFFF"></path>
            </g>
        </g>
    </g>
</svg>